<?xml version="1.0" standalone="no"?>
<!DOCTYPE svg PUBLIC "-//W3C//DTD SVG 20010904//EN"
 "http://www.w3.org/TR/2001/REC-SVG-20010904/DTD/svg10.dtd">
<svg version="1.0" xmlns="http://www.w3.org/2000/svg"
 width="831.000000pt" height="825.000000pt" viewBox="0 0 831.000000 825.000000"
 preserveAspectRatio="xMidYMid meet">

<defs>
  <linearGradient id="ollamifyGradient" x1="0" y1="0" x2="1" y2="1">
    <stop offset="0%" stop-color="#2196F3"/>
    <stop offset="100%" stop-color="#21CBF3"/>
  </linearGradient>
</defs>

<g transform="translate(0.000000,825.000000) scale(0.100000,-0.100000)"
fill="url(#ollamifyGradient)" stroke="none">
<path d="M3865 8204 c-585 -59 -983 -163 -1470 -387 -653 -299 -1236 -799
-1654 -1417 -208 -307 -355 -604 -476 -961 -347 -1022 -284 -2091 180 -3055
416 -864 1113 -1564 1955 -1962 484 -229 1054 -379 1515 -399 122 -5 151 -3
222 15 225 57 390 241 423 471 10 69 -1 162 -25 224 -6 14 -2 17 26 17 61 0
203 40 287 81 157 76 264 217 309 408 16 67 18 127 18 491 l0 415 -24 53 c-41
92 -122 150 -232 167 l-36 5 -6 197 c-4 108 -7 261 -7 340 l0 143 145 0 145 0
59 -59 c69 -69 184 -130 306 -162 124 -33 319 -31 440 5 118 35 219 87 314
162 183 144 289 337 315 570 l11 103 71 49 c318 224 420 692 230 1059 -25 49
-70 117 -99 153 l-54 64 13 56 c36 146 28 317 -21 461 -74 215 -252 414 -437
485 -23 9 -46 20 -51 24 -4 3 -16 40 -28 81 -39 143 -141 299 -257 394 -141
117 -317 183 -515 192 l-118 6 -29 42 c-94 137 -303 264 -497 301 -192 36
-469 1 -600 -76 l-34 -20 -42 21 c-253 130 -612 126 -869 -8 -83 -43 -207
-148 -255 -214 l-35 -49 -83 0 c-394 0 -732 -265 -819 -643 -5 -20 -16 -32
-39 -39 -111 -39 -249 -143 -327 -247 -153 -203 -209 -431 -164 -673 l16 -88
-40 -45 c-140 -159 -222 -400 -209 -615 17 -271 159 -532 353 -646 l41 -24 7
-83 c9 -113 31 -197 78 -297 102 -221 291 -380 545 -457 76 -23 106 -26 223
-27 166 -1 245 17 385 84 170 83 272 182 283 276 6 59 -3 87 -39 123 -26 26
-38 31 -80 31 -61 0 -79 -9 -146 -72 -159 -149 -437 -181 -650 -76 -75 37
-178 128 -223 198 -74 116 -98 253 -65 381 9 33 13 64 10 70 -4 5 -35 22 -70
38 -310 141 -443 467 -310 759 39 85 94 152 179 216 47 36 76 66 76 77 0 11
-15 49 -34 86 -41 81 -56 149 -56 247 0 189 119 375 294 462 l75 37 39 -34
c22 -19 121 -106 221 -194 l181 -160 -6 -56 c-20 -175 138 -319 305 -279 110
26 180 112 189 230 4 61 1 76 -22 124 -15 31 -44 69 -64 86 -45 37 -124 62
-169 54 -36 -7 -45 0 -363 280 -69 61 -127 111 -129 113 -2 1 2 31 9 65 33
154 143 296 280 360 111 53 163 62 314 56 72 -3 136 -4 143 -1 7 2 37 42 68
89 102 152 239 242 420 272 89 15 102 15 196 -1 58 -10 124 -28 157 -44 l57
-28 3 -220 c4 -370 17 -1960 16 -1963 -2 -3 -38 31 -251 232 l-63 59 0 156 c0
86 -3 268 -7 404 -7 294 2 269 -160 417 -150 137 -149 136 -163 185 -38 135
-185 211 -305 156 -51 -23 -101 -75 -116 -119 -18 -56 -7 -141 25 -190 38 -56
82 -82 165 -96 l68 -11 112 -106 111 -106 0 -336 0 -336 -92 -3 c-51 -2 -239
-5 -418 -6 l-325 -2 -20 32 c-32 52 -103 89 -179 95 -57 5 -72 2 -120 -21
-160 -78 -193 -282 -64 -402 89 -85 203 -95 315 -28 l56 35 501 5 501 5 210
-196 210 -195 8 -88 c4 -48 6 -231 5 -407 l-3 -320 -155 140 c-130 118 -249
224 -621 550 -18 17 -47 48 -64 70 -65 88 -140 128 -237 127 -156 -2 -275
-110 -286 -261 -8 -123 41 -216 140 -265 42 -21 66 -26 127 -26 83 0 133 17
189 64 18 16 38 26 45 23 12 -5 218 -187 622 -551 110 -99 210 -189 222 -200
22 -21 23 -24 23 -313 l0 -293 -82 0 c-223 0 -317 -53 -380 -211 -20 -50 -22
-77 -26 -338 -4 -304 5 -452 37 -564 78 -271 247 -430 520 -490 l99 -22 -5
-30 c-2 -16 -17 -54 -31 -84 -40 -81 -83 -101 -222 -101 -153 0 -369 32 -582
85 -962 243 -1803 847 -2287 1645 -483 797 -646 1787 -441 2685 118 515 358
999 726 1462 99 125 410 436 534 534 218 173 397 287 643 411 412 206 843 329
1297 369 167 15 571 6 760 -16 570 -66 1119 -270 1605 -595 181 -121 328 -243
496 -410 288 -287 483 -555 671 -926 217 -427 348 -871 389 -1324 15 -162 5
-635 -16 -785 -60 -427 -172 -789 -361 -1166 -233 -466 -541 -846 -949 -1170
-87 -69 -326 -232 -421 -287 -179 -103 -484 -240 -664 -297 -73 -23 -135 -70
-161 -122 -76 -155 17 -339 186 -367 107 -18 415 89 715 247 676 356 1231 881
1637 1550 273 451 453 987 529 1582 23 178 27 750 6 915 -66 519 -187 936
-399 1380 -592 1238 -1803 2084 -3228 2256 -114 14 -680 27 -770 18z m935
-1474 c128 -35 261 -135 325 -246 63 -109 52 -104 217 -97 164 6 240 -7 343
-60 77 -40 191 -154 232 -232 34 -65 73 -192 73 -238 0 -50 16 -64 97 -88 186
-56 350 -221 399 -404 17 -61 18 -176 3 -247 -6 -29 -30 -89 -52 -133 l-40
-80 49 -40 c140 -115 214 -221 249 -360 66 -258 -86 -538 -348 -646 -75 -30
-82 -43 -62 -118 28 -111 13 -230 -43 -335 -15 -28 -59 -83 -98 -123 -122
-124 -278 -181 -463 -170 -154 9 -238 45 -349 152 l-64 60 -256 0 c-242 0
-260 -1 -304 -22 -31 -14 -56 -36 -75 -64 l-28 -43 2 -412 3 -413 -151 -3
c-83 -2 -153 -1 -155 1 -2 2 -4 241 -4 530 l0 526 291 293 291 292 213 0 c124
0 226 4 242 10 15 6 145 129 289 274 l261 263 60 5 c156 15 265 139 250 285
-22 212 -275 296 -424 141 -46 -48 -66 -102 -67 -184 l-1 -71 -225 -231 -225
-231 -182 -3 -183 -3 0 185 0 185 308 311 307 311 53 6 c70 8 133 52 162 112
18 37 21 59 18 110 -5 84 -41 137 -118 178 -48 25 -62 28 -110 23 -63 -8 -129
-43 -155 -83 -11 -15 -28 -58 -40 -96 l-20 -68 -292 -298 c-161 -164 -305
-313 -320 -332 l-28 -33 -5 -312 -5 -313 -171 -173 -171 -173 -7 179 c-3 99
-6 364 -6 590 l0 411 281 280 c154 154 294 298 310 319 l29 39 0 161 0 162 46
38 c84 71 115 184 79 287 -44 124 -169 186 -297 147 -53 -16 -132 -88 -153
-140 -39 -96 -12 -220 64 -292 l31 -30 0 -115 0 -115 -192 -193 -193 -194 -7
83 c-3 46 -6 342 -7 660 l-1 576 66 31 c36 17 84 36 107 42 96 27 248 27 347
-1z m60 -500 c26 -26 25 -58 -2 -87 -41 -44 -108 -19 -108 40 0 61 67 90 110
47z m-1943 -922 c40 -38 24 -90 -33 -104 -30 -8 -74 28 -74 61 0 59 63 85 107
43z m3083 -447 c25 -47 -1 -101 -48 -101 -54 0 -81 62 -45 102 22 25 79 24 93
-1z m-3000 -891 c30 -30 27 -83 -6 -109 -35 -28 -69 -26 -99 4 -50 49 -19 125
50 125 22 0 43 -8 55 -20z"/>
</g>
</svg>

